<svg xmlns="http://www.w3.org/2000/svg" xmlns:xlink="http://www.w3.org/1999/xlink" width="76.191" height="85.325" viewBox="0 0 76.191 85.325">
  <defs>
    <linearGradient id="linear-gradient" x1="0.286" y1="0.146" x2="0.61" y2="0.863" gradientUnits="objectBoundingBox">
      <stop offset="0" stop-color="#8658ee"/>
      <stop offset="0.993" stop-color="#5a49de"/>
    </linearGradient>
  </defs>
  <g id="Group_5" data-name="Group 5" transform="translate(-210.45 -126.83)">
    <path id="Path_2" data-name="Path 2" d="M240.4,136.925c.706.425,1.2.46,1.547,2.336a14.879,14.879,0,0,1-2.1,11.4,9.832,9.832,0,0,1-3.61,3.7c-2.569,1.313-5.643.615-8.528.569a1.488,1.488,0,0,0-.888.181c-.65.454-.263,1.463-.365,2.25-.163,1.265-1.732,2.191-1.457,3.437.171.777.983,1.2,1.556,1.752a3.5,3.5,0,0,1,.454,4.337c.8-1.105-.418-2.564-1.615-3.216s-2.7-1.409-2.715-2.773c-.012-1.4,1.671-2.44,1.513-3.831a2.176,2.176,0,0,0-1.741-1.686,8.262,8.262,0,0,0-2.57-.011,18.524,18.524,0,0,1-5.023-.3c-1.66-.332-3.456-1.053-4.115-2.612a5.914,5.914,0,0,1-.244-2.75,23.607,23.607,0,0,1,1.439-7.35,9.519,9.519,0,0,1,5.007-5.342,13.9,13.9,0,0,1,4.63-.723c5.185-.189,8.825-.048,14.3-.138C235.871,136.16,239.156,136.177,240.4,136.925Z" fill="#353d62" opacity="0.8"/>
    <text id="Hi_" data-name="Hi!" transform="translate(217.754 151.339)" fill="#f3f4e9" font-size="13.052" font-family="Montserrat-BlackItalic, Montserrat" font-weight="800" font-style="italic"><tspan x="0" y="0">Hi!</tspan></text>
    <g id="Group_4" data-name="Group 4">
      <path id="Path_3" data-name="Path 3" d="M268.238,153.964c1,2.868,1.182,7.4,1.328,11.767s.656,9.048,3.5,12.369c1.208,1.412,2.771,2.485,3.991,3.887s2.094,3.339,1.521,5.107c-.666,2.056-3.049,3.093-5.21,3.1s-4.243-.753-6.376-1.1a2.572,2.572,0,0,0-1.462.065c-2.211.98.816,4.573-.31,6.713-.967,1.837-3.732.913-5.538-.111s-4.866-1.4-5.254.644c-.178.932.425,1.818.608,2.749.492,2.5-2.353,4.658-4.888,4.4s-4.6-2.113-6.276-4.033a39.9,39.9,0,0,1-9.325-31.29,26.733,26.733,0,0,1,3.839-11.018c3.811-5.815,9.889-10.371,16.815-10.356C255.2,146.85,265.685,146.655,268.238,153.964Z" fill="url(#linear-gradient)"/>
      <ellipse id="Ellipse_1" data-name="Ellipse 1" cx="13.564" cy="1.295" rx="13.564" ry="1.295" transform="translate(245.865 209.566)" fill="#191c2c"/>
      <path id="Path_4" data-name="Path 4" d="M249.088,165.193a2.228,2.228,0,0,0,2.892.029,5.9,5.9,0,0,1,.773-.506,2.109,2.109,0,0,1,.984-.145,1.694,1.694,0,0,1,.713.169,1.729,1.729,0,0,1,.738,1.561,3.82,3.82,0,0,1-2.766,3.6,5.7,5.7,0,0,1-2.139.073,5.16,5.16,0,0,1-2.069-.622,3.335,3.335,0,0,1-1.475-3.507,1.322,1.322,0,0,1,.524-.861,1.533,1.533,0,0,1,1.345-.136A1.887,1.887,0,0,1,249.088,165.193Z" fill="#f1f1f0"/>
      <g id="Group_2" data-name="Group 2">
        <path id="Path_5" data-name="Path 5" d="M245.865,163.667c-.089.011-.156-.293-.251-.71-.026-.116-.049-.224-.071-.324a.943.943,0,0,0-.8-.589.944.944,0,0,0-.665.245,1.186,1.186,0,0,0-.318.554c-.112.4-.149.7-.24.7-.074,0-.2-.265-.183-.768a1.412,1.412,0,0,1,.338-.872,1.393,1.393,0,0,1,1.1-.462,1.365,1.365,0,0,1,1.043.577,1.292,1.292,0,0,1,.212.48c0,.128.009.266.013.414C246.03,163.4,245.942,163.658,245.865,163.667Z" fill="#191c2c"/>
      </g>
      <g id="Group_3" data-name="Group 3">
        <path id="Path_6" data-name="Path 6" d="M257.645,163.667c-.09.011-.156-.293-.252-.71-.025-.116-.049-.224-.071-.324a.943.943,0,0,0-.8-.589.947.947,0,0,0-.665.245,1.2,1.2,0,0,0-.318.554c-.111.4-.148.7-.239.7-.075,0-.2-.265-.184-.768a1.413,1.413,0,0,1,.339-.872,1.39,1.39,0,0,1,1.1-.462,1.363,1.363,0,0,1,1.042.577,1.261,1.261,0,0,1,.212.48c0,.128.009.266.014.414C257.81,163.4,257.722,163.658,257.645,163.667Z" fill="#191c2c"/>
      </g>
      <path id="Path_7" data-name="Path 7" d="M240.7,164.354l1.252.168a.263.263,0,0,1,.076.5l-1.116.521a.259.259,0,0,0-.147.188l-.276,1.423a.263.263,0,0,1-.5.06l-.628-1.361a.263.263,0,0,0-.207-.151l-1.186-.141a.263.263,0,0,1-.075-.5l1.163-.515a.261.261,0,0,0,.154-.2l.19-1.334a.263.263,0,0,1,.5-.074l.6,1.273A.264.264,0,0,0,240.7,164.354Z" fill="#f1f1f0"/>
      <path id="Path_8" data-name="Path 8" d="M262.066,160.211l.629.084a.132.132,0,0,1,.039.251l-.562.262a.133.133,0,0,0-.074.1l-.138.716a.132.132,0,0,1-.25.03l-.316-.685a.133.133,0,0,0-.105-.076l-.6-.071a.132.132,0,0,1-.038-.252l.585-.259a.134.134,0,0,0,.078-.1l.1-.671a.132.132,0,0,1,.251-.038l.3.641A.133.133,0,0,0,262.066,160.211Z" fill="#f1f1f0"/>
    </g>
    <path id="Path_9" data-name="Path 9" d="M214.95,162.948l1.252.167a.264.264,0,0,1,.076.5l-1.117.521a.26.26,0,0,0-.146.188l-.276,1.423a.263.263,0,0,1-.5.06l-.628-1.361a.263.263,0,0,0-.208-.151l-1.185-.141a.263.263,0,0,1-.075-.5l1.162-.515a.259.259,0,0,0,.154-.2l.191-1.334a.263.263,0,0,1,.5-.074l.6,1.273A.262.262,0,0,0,214.95,162.948Z" fill="#353d62" opacity="0.8"/>
    <path id="Path_10" data-name="Path 10" d="M281.226,139.746l1.251.168a.263.263,0,0,1,.076.5l-1.116.521a.261.261,0,0,0-.147.188l-.276,1.423a.263.263,0,0,1-.5.06l-.627-1.361a.265.265,0,0,0-.208-.151l-1.185-.141a.263.263,0,0,1-.076-.5l1.163-.515a.261.261,0,0,0,.154-.2l.19-1.334a.263.263,0,0,1,.5-.074l.6,1.273A.264.264,0,0,0,281.226,139.746Z" fill="#353d62" opacity="0.8"/>
    <path id="Path_11" data-name="Path 11" d="M247.1,138.952l.629.085a.132.132,0,0,1,.038.25l-.561.262a.132.132,0,0,0-.073.094l-.139.715a.132.132,0,0,1-.25.03l-.315-.683a.129.129,0,0,0-.1-.076l-.6-.071a.132.132,0,0,1-.038-.252l.584-.259a.131.131,0,0,0,.077-.1l.1-.67a.132.132,0,0,1,.25-.037l.3.639A.13.13,0,0,0,247.1,138.952Z" fill="#353d62" opacity="0.8"/>
    <path id="Path_12" data-name="Path 12" d="M276.026,167.652l.628.084a.132.132,0,0,1,.038.251l-.56.261a.131.131,0,0,0-.074.1l-.139.715a.132.132,0,0,1-.249.03l-.315-.684a.137.137,0,0,0-.105-.076l-.6-.07a.132.132,0,0,1-.038-.252l.584-.259a.129.129,0,0,0,.077-.1l.1-.67a.132.132,0,0,1,.251-.037l.3.639A.132.132,0,0,0,276.026,167.652Z" fill="#353d62" opacity="0.8"/>
    <path id="Path_13" data-name="Path 13" d="M225.463,128.128l1.032.138a.217.217,0,0,1,.063.411l-.921.43a.215.215,0,0,0-.121.155l-.227,1.173a.217.217,0,0,1-.41.05l-.517-1.122a.216.216,0,0,0-.171-.125l-.977-.116a.217.217,0,0,1-.062-.414l.958-.424a.22.22,0,0,0,.127-.168l.157-1.1a.217.217,0,0,1,.411-.061l.491,1.05A.216.216,0,0,0,225.463,128.128Z" fill="#7397fb"/>
    <path id="Path_14" data-name="Path 14" d="M285.227,157.692l1.2.16a.251.251,0,0,1,.073.477l-1.067.5a.251.251,0,0,0-.141.18l-.264,1.361a.251.251,0,0,1-.475.057l-.6-1.3a.251.251,0,0,0-.2-.144l-1.133-.135a.252.252,0,0,1-.072-.48l1.112-.492a.252.252,0,0,0,.147-.194l.182-1.276a.252.252,0,0,1,.477-.071l.569,1.217A.25.25,0,0,0,285.227,157.692Z" fill="#cb4382"/>
    <path id="Path_15" data-name="Path 15" d="M231.006,190.566l.628.084a.132.132,0,0,1,.039.251l-.561.261a.133.133,0,0,0-.074.1l-.138.715a.132.132,0,0,1-.25.03l-.315-.684a.133.133,0,0,0-.105-.076l-.6-.071a.132.132,0,0,1-.038-.252l.584-.258a.134.134,0,0,0,.078-.1l.1-.67a.132.132,0,0,1,.251-.037l.3.639A.131.131,0,0,0,231.006,190.566Z" fill="#88cd96"/>
    <path id="Path_16" data-name="Path 16" d="M259.8,130.25l.629.084a.132.132,0,0,1,.038.25l-.561.262a.132.132,0,0,0-.073.1l-.139.714a.132.132,0,0,1-.25.031L259.13,131a.129.129,0,0,0-.1-.076l-.6-.071a.132.132,0,0,1-.038-.252l.584-.258a.133.133,0,0,0,.077-.1l.1-.67a.132.132,0,0,1,.25-.038l.3.64A.134.134,0,0,0,259.8,130.25Z" fill="#88cd96"/>
  </g>
</svg>
