<svg xmlns="http://www.w3.org/2000/svg" xmlns:xlink="http://www.w3.org/1999/xlink" width="421.132" height="414.236" viewBox="0 0 421.132 414.236">
  <defs>
    <filter id="Path_25" x="335.514" y="293.346" width="32.558" height="32.09" filterUnits="userSpaceOnUse">
      <feOffset dx="7" dy="7" input="SourceAlpha"/>
      <feGaussianBlur stdDeviation="2.5" result="blur"/>
      <feFlood flood-color="#1f2026" flood-opacity="0.349"/>
      <feComposite operator="in" in2="blur"/>
      <feComposite in="SourceGraphic"/>
    </filter>
    <linearGradient id="linear-gradient" y1="0.5" x2="1" y2="0.5" gradientUnits="objectBoundingBox">
      <stop offset="0" stop-color="#8658ee"/>
      <stop offset="0.993" stop-color="#5a49de"/>
    </linearGradient>
    <filter id="Path_26" x="23.783" y="183.323" width="56.549" height="57.913" filterUnits="userSpaceOnUse">
      <feOffset dx="7" dy="7" input="SourceAlpha"/>
      <feGaussianBlur stdDeviation="2.5" result="blur-2"/>
      <feFlood flood-color="#1f2026" flood-opacity="0.349"/>
      <feComposite operator="in" in2="blur-2"/>
      <feComposite in="SourceGraphic"/>
    </filter>
    <filter id="Path_31" x="223.561" y="5.841" width="38.042" height="38.798" filterUnits="userSpaceOnUse">
      <feOffset dx="7" dy="7" input="SourceAlpha"/>
      <feGaussianBlur stdDeviation="2.5" result="blur-3"/>
      <feFlood flood-color="#1f2026" flood-opacity="0.349"/>
      <feComposite operator="in" in2="blur-3"/>
      <feComposite in="SourceGraphic"/>
    </filter>
  </defs>
  <g id="Group_17" data-name="Group 17" transform="translate(-39.434 -42.882)">
    <path id="Path_20" data-name="Path 20" d="M56.376,191.722l3.565.477a.749.749,0,0,1,.218,1.421L56.978,195.1a.747.747,0,0,0-.418.536l-.786,4.055a.749.749,0,0,1-1.416.171l-1.787-3.878a.749.749,0,0,0-.592-.43l-3.376-.4a.749.749,0,0,1-.215-1.429l3.312-1.466a.75.75,0,0,0,.438-.58l.543-3.8a.75.75,0,0,1,1.421-.211L55.8,191.3A.748.748,0,0,0,56.376,191.722Z" fill="#353d62" opacity="0.8"/>
    <path id="Path_21" data-name="Path 21" d="M424.424,99.476l1.389,3.317a.749.749,0,0,1-1.117.906l-2.888-1.995a.748.748,0,0,0-.674-.091l-3.9,1.37a.749.749,0,0,1-.863-1.136l2.444-3.5a.75.75,0,0,0,.073-.728L417.534,94.5a.749.749,0,0,1,1.125-.907l2.938,2.117a.75.75,0,0,0,.722.086l3.554-1.45a.749.749,0,0,1,.9,1.119L424.5,98.761A.751.751,0,0,0,424.424,99.476Z" fill="#353d62" opacity="0.8"/>
    <path id="Path_22" data-name="Path 22" d="M449.528,253.751l1.388,3.318a.749.749,0,0,1-1.117.9l-2.887-1.995a.75.75,0,0,0-.675-.09l-3.9,1.369a.749.749,0,0,1-.863-1.136l2.444-3.5a.747.747,0,0,0,.073-.728l-1.358-3.117a.749.749,0,0,1,1.125-.907l2.939,2.117a.745.745,0,0,0,.721.086l3.554-1.45a.749.749,0,0,1,.9,1.119l-2.274,3.295A.748.748,0,0,0,449.528,253.751Z" fill="#353d62" opacity="0.8"/>
    <path id="Path_23" data-name="Path 23" d="M196.555,48.91l1.389,3.318a.749.749,0,0,1-1.117.9l-2.888-1.995a.751.751,0,0,0-.674-.091l-3.9,1.37a.749.749,0,0,1-.863-1.136l2.444-3.5a.75.75,0,0,0,.073-.728l-1.358-3.117a.749.749,0,0,1,1.125-.907l2.938,2.118a.75.75,0,0,0,.722.085L198,43.781a.749.749,0,0,1,.9,1.119l-2.274,3.295A.751.751,0,0,0,196.555,48.91Z" fill="#353d62" opacity="0.8"/>
    <path id="Path_24" data-name="Path 24" d="M448.374,206.67l-4.154,7.089a1.712,1.712,0,0,1-3.188-.8l-.317-8.012a1.711,1.711,0,0,0-.76-1.356l-7.848-5.238a1.711,1.711,0,0,1,.891-3.134l9.749-.34a1.709,1.709,0,0,0,1.429-.866l3.831-6.757a1.711,1.711,0,0,1,3.2.81l.164,8.273a1.711,1.711,0,0,0,.833,1.435l7.526,4.5a1.711,1.711,0,0,1-.809,3.179l-9.139.368A1.712,1.712,0,0,0,448.374,206.67Z" fill="#7397fb"/>
    <g transform="matrix(1, 0, 0, 1, 39.43, 42.88)" filter="url(#Path_25)">
      <path id="Path_25-2" data-name="Path 25" d="M388.918,346.645,391.2,352.1a1.233,1.233,0,0,1-1.838,1.49l-4.75-3.283a1.237,1.237,0,0,0-1.11-.149l-6.409,2.254a1.233,1.233,0,0,1-1.42-1.869l4.021-5.76a1.231,1.231,0,0,0,.12-1.2l-2.234-5.128a1.233,1.233,0,0,1,1.851-1.492l4.834,3.484a1.229,1.229,0,0,0,1.186.141l5.847-2.386a1.233,1.233,0,0,1,1.481,1.841l-3.741,5.421A1.231,1.231,0,0,0,388.918,346.645Z" transform="translate(-39.43 -42.88)" fill="#88cd96"/>
    </g>
    <g transform="matrix(1, 0, 0, 1, 39.43, 42.88)" filter="url(#Path_26)">
      <path id="Path_26-2" data-name="Path 26" d="M91.422,241.434,103.131,243a2.461,2.461,0,0,1,.714,4.669L93.4,252.545a2.461,2.461,0,0,0-1.375,1.762l-2.581,13.317a2.461,2.461,0,0,1-4.651.562L78.921,255.45a2.458,2.458,0,0,0-1.944-1.414l-11.088-1.321a2.461,2.461,0,0,1-.705-4.694L76.061,243.2a2.462,2.462,0,0,0,1.44-1.9l1.783-12.481a2.461,2.461,0,0,1,4.666-.7l5.568,11.912A2.464,2.464,0,0,0,91.422,241.434Z" transform="translate(-39.43 -42.88)" fill="url(#linear-gradient)"/>
    </g>
    <path id="Path_27" data-name="Path 27" d="M368.807,377.605l7.149.956a1.5,1.5,0,0,1,.436,2.851l-6.378,2.977a1.5,1.5,0,0,0-.839,1.076L367.6,393.6a1.5,1.5,0,0,1-2.84.343l-3.584-7.777a1.506,1.506,0,0,0-1.187-.863l-6.771-.807a1.5,1.5,0,0,1-.43-2.866l6.641-2.941a1.5,1.5,0,0,0,.879-1.161L361.4,369.9a1.5,1.5,0,0,1,2.849-.424l3.4,7.273A1.505,1.505,0,0,0,368.807,377.605Z" fill="#353d62" opacity="0.8"/>
    <path id="Path_28" data-name="Path 28" d="M136.887,448.463l3.6.481a.756.756,0,0,1,.22,1.434l-3.208,1.5a.755.755,0,0,0-.423.541l-.792,4.09a.756.756,0,0,1-1.428.172l-1.8-3.911a.755.755,0,0,0-.6-.434l-3.406-.406a.755.755,0,0,1-.216-1.441l3.34-1.48a.751.751,0,0,0,.442-.584l.548-3.833a.756.756,0,0,1,1.433-.213l1.71,3.658A.756.756,0,0,0,136.887,448.463Z" fill="#cb4382"/>
    <path id="Path_29" data-name="Path 29" d="M47.942,293.558l3.595.481a.756.756,0,0,1,.22,1.434l-3.208,1.5a.754.754,0,0,0-.422.541l-.793,4.089a.755.755,0,0,1-1.428.173l-1.8-3.912a.757.757,0,0,0-.6-.434l-3.4-.4a.756.756,0,0,1-.217-1.442l3.341-1.479a.758.758,0,0,0,.442-.584l.547-3.833a.756.756,0,0,1,1.433-.214l1.71,3.658A.755.755,0,0,0,47.942,293.558Z" fill="#88cd96"/>
    <path id="Path_30" data-name="Path 30" d="M405.193,147.278l3.6.481a.756.756,0,0,1,.219,1.434l-3.208,1.5a.758.758,0,0,0-.422.541l-.793,4.09a.756.756,0,0,1-1.428.173l-1.8-3.912a.757.757,0,0,0-.6-.434l-3.4-.406a.756.756,0,0,1-.217-1.441l3.341-1.479a.758.758,0,0,0,.442-.585l.548-3.833a.755.755,0,0,1,1.432-.213l1.71,3.658A.757.757,0,0,0,405.193,147.278Z" fill="url(#linear-gradient)"/>
    <g transform="matrix(1, 0, 0, 1, 39.43, 42.88)" filter="url(#Path_31)">
      <path id="Path_31-2" data-name="Path 31" d="M278.859,57.391l6.493.869a1.365,1.365,0,0,1,.4,2.59l-5.793,2.7a1.365,1.365,0,0,0-.762.978l-1.431,7.385a1.365,1.365,0,0,1-2.58.311l-3.256-7.063a1.362,1.362,0,0,0-1.078-.784l-6.149-.733a1.365,1.365,0,0,1-.391-2.6l6.032-2.671a1.365,1.365,0,0,0,.8-1.055l.989-6.922a1.364,1.364,0,0,1,2.587-.385l3.088,6.606A1.364,1.364,0,0,0,278.859,57.391Z" transform="translate(-39.43 -42.88)" fill="#cb4382"/>
    </g>
    <path id="Path_32" data-name="Path 32" d="M110.7,418.047l1.808.242a.381.381,0,0,1,.111.722l-1.614.753a.378.378,0,0,0-.212.272l-.4,2.057a.38.38,0,0,1-.718.086l-.907-1.967a.378.378,0,0,0-.3-.218l-1.713-.2a.38.38,0,0,1-.109-.725l1.68-.744a.381.381,0,0,0,.223-.294l.275-1.928a.38.38,0,0,1,.721-.107l.86,1.84A.379.379,0,0,0,110.7,418.047Z" fill="#353d62" opacity="0.8"/>
  </g>
</svg>
